# xmcd
#
# Track frame offsets:
#	150
#	19237
#	34474
#	51564
#	68277
#	87402
#	106059
#	117360
#	137859
#	159356
#	182640
#	202446
#	227080
#	247512
#	264416
#	281507
#	305190
#	322189
#	354916
#
# Disc length: 4795 seconds
#
# Revision: 2
# Processed by: cddbd v1.5.2PL0 Copyright (c) Steve Scherf et al.
# Submitted via: EZCDAudioConverter 7.0.5.1
#
DISCID=1712b913
DTITLE=江淑娜 - 十年冠軍曲
DYEAR=2003
DGENRE=pop
TTITLE0=煙雨濛濛
TTITLE1=庭院深深
TTITLE2=在水一方
TTITLE3=請你記得我的好
TTITLE4=情字
TTITLE5=忽略
TTITLE6=談笑一生
TTITLE7=今夜微雨
TTITLE8=來不及變心
TTITLE9=不要輕易說ByeBye
TTITLE10=蝴蝶飛遠了
TTITLE11=兩個人的月亮
TTITLE12=看著我的臉
TTITLE13=沙漠海
TTITLE14=長夜悄悄
TTITLE15=九月
TTITLE16=一枚銅錢
TTITLE17=風一樣分手
TTITLE18=123
EXTD=
EXTT0=
EXTT1=
EXTT2=
EXTT3=
EXTT4=
EXTT5=
EXTT6=
EXTT7=
EXTT8=
EXTT9=
EXTT10=
EXTT11=
EXTT12=
EXTT13=
EXTT14=
EXTT15=
EXTT16=
EXTT17=
EXTT18=
PLAYORDER=
